M48
;Layer_Color=9474304
;FILE_FORMAT=4:4
METRIC,LZ
;TYPE=PLATED
T01F00S00C0.7620
T02F00S00C0.9906
T03F00S00C1.7272
%
T01
X0076327Y0026416
X0078867
X0081407
X0083947
X0086487
X0089027
X0091567
X0094107
X00847143Y01457482
X00821743
T02
X00812532Y00505657
Y00531057
Y00556457
Y00581857
Y00607257
Y00632657
Y00658057
Y00683457
Y00708857
Y00734257
Y00759657
Y00785057
X00888732
Y00759657
Y00734257
Y00708857
Y00683457
Y00658057
Y00632657
Y00607257
Y00581857
Y00556457
Y00531057
Y00505657
Y00810457
Y00835857
X00812532
Y00810457
T03
X002667Y0006096
Y0018796
Y0031496
X01434846Y0032258
Y0019558
Y0006858
Y0044958
Y0057658
Y0070358
X002667Y0069596
Y0056896
Y0044196
Y0082296
Y0094996
Y0107696
X01434846Y0108458
Y0095758
Y0083058
Y0121158
Y0133858
Y0146558
X002667Y0145796
Y0133096
Y0120396
Y0158496
Y0171196
X01434846Y0171958
Y0159258
M30
