G04*
G04 #@! TF.GenerationSoftware,Altium Limited,Altium Designer,25.0.2 (28)*
G04*
G04 Layer_Color=2752767*
%FSLAX44Y44*%
%MOMM*%
G71*
G04*
G04 #@! TF.SameCoordinates,EC309722-8CFF-44E8-99F7-827B0D8F2BFB*
G04*
G04*
G04 #@! TF.FilePolarity,Positive*
G04*
G01*
G75*
%ADD11C,0.1270*%
%ADD26C,0.1693*%
D11*
X883652Y830777D02*
Y840937D01*
X893812D01*
Y830777D01*
X883652D01*
Y805377D02*
Y815537D01*
X893812D01*
Y805377D01*
X883652D01*
Y779977D02*
Y790137D01*
X893812D01*
Y779977D01*
X883652D01*
Y754577D02*
Y764737D01*
X893812D01*
Y754577D01*
X883652D01*
Y729177D02*
Y739337D01*
X893812D01*
Y729177D01*
X883652D01*
Y703777D02*
Y713937D01*
X893812D01*
Y703777D01*
X883652D01*
Y678377D02*
Y688537D01*
X893812D01*
Y678377D01*
X883652D01*
Y652977D02*
Y663137D01*
X893812D01*
Y652977D01*
X883652D01*
Y627577D02*
Y637737D01*
X893812D01*
Y627577D01*
X883652D01*
Y602177D02*
Y612337D01*
X893812D01*
Y602177D01*
X883652D01*
Y576777D02*
Y586937D01*
X893812D01*
Y576777D01*
X883652D01*
Y551377D02*
Y561537D01*
X893812D01*
Y551377D01*
X883652D01*
Y525977D02*
Y536137D01*
X893812D01*
Y525977D01*
X883652D01*
Y500577D02*
Y510737D01*
X893812D01*
Y500577D01*
X883652D01*
X807452D02*
Y510737D01*
X817612D01*
Y500577D01*
X807452D01*
Y525977D02*
Y536137D01*
X817612D01*
Y525977D01*
X807452D01*
Y551377D02*
Y561537D01*
X817612D01*
Y551377D01*
X807452D01*
Y576777D02*
Y586937D01*
X817612D01*
Y576777D01*
X807452D01*
Y602177D02*
Y612337D01*
X817612D01*
Y602177D01*
X807452D01*
Y627577D02*
Y637737D01*
X817612D01*
Y627577D01*
X807452D01*
Y652977D02*
Y663137D01*
X817612D01*
Y652977D01*
X807452D01*
Y678377D02*
Y688537D01*
X817612D01*
Y678377D01*
X807452D01*
Y703777D02*
Y713937D01*
X817612D01*
Y703777D01*
X807452D01*
Y729177D02*
Y739337D01*
X817612D01*
Y729177D01*
X807452D01*
Y754577D02*
Y764737D01*
X817612D01*
Y754577D01*
X807452D01*
Y779977D02*
Y790137D01*
X817612D01*
Y779977D01*
X807452D01*
Y805377D02*
Y815537D01*
X817612D01*
Y805377D01*
X807452D01*
Y830777D02*
Y840937D01*
X817612D01*
Y830777D01*
X807452D01*
X266700Y944880D02*
X261620Y955040D01*
X271780D01*
X266700Y944880D01*
Y1071880D02*
X261620Y1082040D01*
X271780D01*
X266700Y1071880D01*
Y1198880D02*
X261620Y1209040D01*
X271780D01*
X266700Y1198880D01*
Y1325880D02*
X261620Y1336040D01*
X271780D01*
X266700Y1325880D01*
Y1452880D02*
X261620Y1463040D01*
X271780D01*
X266700Y1452880D01*
Y1579880D02*
X261620Y1590040D01*
X271780D01*
X266700Y1579880D01*
Y1706880D02*
X261620Y1717040D01*
X271780D01*
X266700Y1706880D01*
Y55880D02*
X261620Y66040D01*
X271780D01*
X266700Y55880D01*
Y182880D02*
X261620Y193040D01*
X271780D01*
X266700Y182880D01*
Y309880D02*
X261620Y320040D01*
X271780D01*
X266700Y309880D01*
Y436880D02*
X261620Y447040D01*
X271780D01*
X266700Y436880D01*
Y563880D02*
X261620Y574040D01*
X271780D01*
X266700Y563880D01*
Y690880D02*
X261620Y701040D01*
X271780D01*
X266700Y690880D01*
Y817880D02*
X261620Y828040D01*
X271780D01*
X266700Y817880D01*
X1434846Y825500D02*
X1429766Y835660D01*
X1439926D01*
X1434846Y825500D01*
Y698500D02*
X1429766Y708660D01*
X1439926D01*
X1434846Y698500D01*
Y571500D02*
X1429766Y581660D01*
X1439926D01*
X1434846Y571500D01*
Y444500D02*
X1429766Y454660D01*
X1439926D01*
X1434846Y444500D01*
Y317500D02*
X1429766Y327660D01*
X1439926D01*
X1434846Y317500D01*
Y190500D02*
X1429766Y200660D01*
X1439926D01*
X1434846Y190500D01*
Y63500D02*
X1429766Y73660D01*
X1439926D01*
X1434846Y63500D01*
Y1714500D02*
X1429766Y1724660D01*
X1439926D01*
X1434846Y1714500D01*
Y1587500D02*
X1429766Y1597660D01*
X1439926D01*
X1434846Y1587500D01*
Y1460500D02*
X1429766Y1470660D01*
X1439926D01*
X1434846Y1460500D01*
Y1333500D02*
X1429766Y1343660D01*
X1439926D01*
X1434846Y1333500D01*
Y1206500D02*
X1429766Y1216660D01*
X1439926D01*
X1434846Y1206500D01*
Y1079500D02*
X1429766Y1089660D01*
X1439926D01*
X1434846Y1079500D01*
Y952500D02*
X1429766Y962660D01*
X1439926D01*
X1434846Y952500D01*
D26*
X826823Y1457482D02*
G03*
X826823Y1457482I-5080J0D01*
G01*
X852223D02*
G03*
X852223Y1457482I-5080J0D01*
G01*
X768350Y264160D02*
G03*
X768350Y264160I-5080J0D01*
G01*
X793750D02*
G03*
X793750Y264160I-5080J0D01*
G01*
X819150D02*
G03*
X819150Y264160I-5080J0D01*
G01*
X844550D02*
G03*
X844550Y264160I-5080J0D01*
G01*
X869950D02*
G03*
X869950Y264160I-5080J0D01*
G01*
X895350D02*
G03*
X895350Y264160I-5080J0D01*
G01*
X920750D02*
G03*
X920750Y264160I-5080J0D01*
G01*
X946150D02*
G03*
X946150Y264160I-5080J0D01*
G01*
M02*
