G04*
G04 #@! TF.GenerationSoftware,Altium Limited,Altium Designer,25.0.2 (28)*
G04*
G04 Layer_Color=32896*
%FSLAX44Y44*%
%MOMM*%
G71*
G04*
G04 #@! TF.SameCoordinates,EC309722-8CFF-44E8-99F7-827B0D8F2BFB*
G04*
G04*
G04 #@! TF.FilePolarity,Positive*
G04*
G01*
G75*
%ADD12C,0.2540*%
D12*
X980045Y257508D02*
Y252430D01*
Y254969D01*
X967349D01*
X964810Y252430D01*
Y249891D01*
X967349Y247352D01*
X964810Y272743D02*
Y262587D01*
X974966Y272743D01*
X977505D01*
X980045Y270204D01*
Y265126D01*
X977505Y262587D01*
X1454150Y1776471D02*
X1443993D01*
X1449072D01*
Y1761236D01*
X1438915D02*
Y1776471D01*
X1431297D01*
X1428758Y1773932D01*
Y1768853D01*
X1431297Y1766314D01*
X1438915D01*
X1413523Y1761236D02*
X1423680D01*
X1413523Y1771393D01*
Y1773932D01*
X1416062Y1776471D01*
X1421141D01*
X1423680Y1773932D01*
X288036Y1758691D02*
X277879D01*
X282958D01*
Y1743456D01*
X272801D02*
Y1758691D01*
X265183D01*
X262644Y1756152D01*
Y1751073D01*
X265183Y1748534D01*
X272801D01*
X257566Y1743456D02*
X252488D01*
X255027D01*
Y1758691D01*
X257566Y1756152D01*
M02*
