G04*
G04 #@! TF.GenerationSoftware,Altium Limited,Altium Designer,25.0.2 (28)*
G04*
G04 Layer_Color=128*
%FSLAX44Y44*%
%MOMM*%
G71*
G04*
G04 #@! TF.SameCoordinates,EC309722-8CFF-44E8-99F7-827B0D8F2BFB*
G04*
G04*
G04 #@! TF.FilePolarity,Positive*
G04*
G01*
G75*
%ADD11C,0.1270*%
D11*
X817933Y1457482D02*
X825553D01*
X821743Y1453672D02*
Y1461292D01*
X843333Y1457482D02*
X850953D01*
X847143Y1453672D02*
Y1461292D01*
X883779Y835857D02*
X893685D01*
X888732Y830904D02*
Y840810D01*
X883779Y810457D02*
X893685D01*
X888732Y805504D02*
Y815410D01*
X883779Y785057D02*
X893685D01*
X888732Y780104D02*
Y790010D01*
X883779Y759657D02*
X893685D01*
X888732Y754704D02*
Y764610D01*
X883779Y734257D02*
X893685D01*
X888732Y729304D02*
Y739210D01*
X883779Y708857D02*
X893685D01*
X888732Y703904D02*
Y713810D01*
X883779Y683457D02*
X893685D01*
X888732Y678504D02*
Y688410D01*
X883779Y658057D02*
X893685D01*
X888732Y653104D02*
Y663010D01*
X883779Y632657D02*
X893685D01*
X888732Y627704D02*
Y637610D01*
X883779Y607257D02*
X893685D01*
X888732Y602304D02*
Y612210D01*
X883779Y581857D02*
X893685D01*
X888732Y576904D02*
Y586810D01*
X883779Y556457D02*
X893685D01*
X888732Y551504D02*
Y561410D01*
X883779Y531057D02*
X893685D01*
X888732Y526104D02*
Y536010D01*
X883779Y505657D02*
X893685D01*
X888732Y500704D02*
Y510610D01*
X807579Y505657D02*
X817485D01*
X812532Y500704D02*
Y510610D01*
X807579Y531057D02*
X817485D01*
X812532Y526104D02*
Y536010D01*
X807579Y556457D02*
X817485D01*
X812532Y551504D02*
Y561410D01*
X807579Y581857D02*
X817485D01*
X812532Y576904D02*
Y586810D01*
X807579Y607257D02*
X817485D01*
X812532Y602304D02*
Y612210D01*
X807579Y632657D02*
X817485D01*
X812532Y627704D02*
Y637610D01*
X807579Y658057D02*
X817485D01*
X812532Y653104D02*
Y663010D01*
X807579Y683457D02*
X817485D01*
X812532Y678504D02*
Y688410D01*
X807579Y708857D02*
X817485D01*
X812532Y703904D02*
Y713810D01*
X807579Y734257D02*
X817485D01*
X812532Y729304D02*
Y739210D01*
X807579Y759657D02*
X817485D01*
X812532Y754704D02*
Y764610D01*
X807579Y785057D02*
X817485D01*
X812532Y780104D02*
Y790010D01*
X807579Y810457D02*
X817485D01*
X812532Y805504D02*
Y815410D01*
X807579Y835857D02*
X817485D01*
X812532Y830904D02*
Y840810D01*
X759460Y264160D02*
X767080D01*
X763270Y260350D02*
Y267970D01*
X784860Y264160D02*
X792480D01*
X788670Y260350D02*
Y267970D01*
X810260Y264160D02*
X817880D01*
X814070Y260350D02*
Y267970D01*
X835660Y264160D02*
X843280D01*
X839470Y260350D02*
Y267970D01*
X861060Y264160D02*
X868680D01*
X864870Y260350D02*
Y267970D01*
X886460Y264160D02*
X894080D01*
X890270Y260350D02*
Y267970D01*
X911860Y264160D02*
X919480D01*
X915670Y260350D02*
Y267970D01*
X937260Y264160D02*
X944880D01*
X941070Y260350D02*
Y267970D01*
X258064Y949960D02*
X275336D01*
X266700Y941324D02*
Y958596D01*
X258064Y1076960D02*
X275336D01*
X266700Y1068324D02*
Y1085596D01*
X258064Y1203960D02*
X275336D01*
X266700Y1195324D02*
Y1212596D01*
X258064Y1330960D02*
X275336D01*
X266700Y1322324D02*
Y1339596D01*
X258064Y1457960D02*
X275336D01*
X266700Y1449324D02*
Y1466596D01*
X258064Y1584960D02*
X275336D01*
X266700Y1576324D02*
Y1593596D01*
X258064Y1711960D02*
X275336D01*
X266700Y1703324D02*
Y1720596D01*
X258064Y60960D02*
X275336D01*
X266700Y52324D02*
Y69596D01*
X258064Y187960D02*
X275336D01*
X266700Y179324D02*
Y196596D01*
X258064Y314960D02*
X275336D01*
X266700Y306324D02*
Y323596D01*
X258064Y441960D02*
X275336D01*
X266700Y433324D02*
Y450596D01*
X258064Y568960D02*
X275336D01*
X266700Y560324D02*
Y577596D01*
X258064Y695960D02*
X275336D01*
X266700Y687324D02*
Y704596D01*
X258064Y822960D02*
X275336D01*
X266700Y814324D02*
Y831596D01*
X1426210Y830580D02*
X1443482D01*
X1434846Y821944D02*
Y839216D01*
X1426210Y703580D02*
X1443482D01*
X1434846Y694944D02*
Y712216D01*
X1426210Y576580D02*
X1443482D01*
X1434846Y567944D02*
Y585216D01*
X1426210Y449580D02*
X1443482D01*
X1434846Y440944D02*
Y458216D01*
X1426210Y322580D02*
X1443482D01*
X1434846Y313944D02*
Y331216D01*
X1426210Y195580D02*
X1443482D01*
X1434846Y186944D02*
Y204216D01*
X1426210Y68580D02*
X1443482D01*
X1434846Y59944D02*
Y77216D01*
X1426210Y1719580D02*
X1443482D01*
X1434846Y1710944D02*
Y1728216D01*
X1426210Y1592580D02*
X1443482D01*
X1434846Y1583944D02*
Y1601216D01*
X1426210Y1465580D02*
X1443482D01*
X1434846Y1456944D02*
Y1474216D01*
X1426210Y1338580D02*
X1443482D01*
X1434846Y1329944D02*
Y1347216D01*
X1426210Y1211580D02*
X1443482D01*
X1434846Y1202944D02*
Y1220216D01*
X1426210Y1084580D02*
X1443482D01*
X1434846Y1075944D02*
Y1093216D01*
X1426210Y957580D02*
X1443482D01*
X1434846Y948944D02*
Y966216D01*
M02*
